<svg width="51" height="41" viewBox="0 0 51 41" fill="none" xmlns="http://www.w3.org/2000/svg">
<g id="Shopping basket">
<path id="Vector" d="M36.8113 15.7881L27.6586 4.78245C27.2615 4.3127 26.5928 4.07782 25.9241 4.07782C25.2555 4.07782 24.5868 4.3127 24.1897 4.79923L15.037 15.7881H5.02758C3.87827 15.7881 2.93793 16.5431 2.93793 17.4658C2.93793 17.6168 2.95882 17.7678 3.02151 17.9188L8.32924 33.471C8.80986 34.8803 10.4189 35.9205 12.3414 35.9205H39.5069C41.4294 35.9205 43.0384 34.8803 43.54 33.471L48.8477 17.9188L48.9104 17.4658C48.9104 16.5431 47.97 15.7881 46.8207 15.7881H36.8113ZM19.6552 15.7881L25.9241 8.40627L32.1931 15.7881H19.6552ZM25.9241 29.2097C23.6255 29.2097 21.7448 27.6998 21.7448 25.8543C21.7448 24.0088 23.6255 22.4989 25.9241 22.4989C28.2228 22.4989 30.1035 24.0088 30.1035 25.8543C30.1035 27.6998 28.2228 29.2097 25.9241 29.2097Z" fill="white"/>
</g>
</svg>
